PathFileType	4	(X/Y/Z)	D:\TRACE\spot_10-12-23\spot_arm_motion_3_3-v60.trc
DataRate	CameraRate	NumFrames	NumMarkers	Units	OrigDataRate	OrigDataStartFrame	OrigNumFrames
100.00	100.00	      35	9	mm	100.00	5251	      7000
Frame#	Time	front left toe			Front right toe			aft left toe			aft right toe			Arm			FL body			FR body			AL Body			AR Body			
		X1	Y1	Z1	X2	Y2	Z2	X3	Y3	Z3	X4	Y4	Z4	X5	Y5	Z5	X6	Y6	Z6	X7	Y7	Z7	X8	Y8	Z8	X9	Y9	Z9	

5251	52.500	-215.84311	21.02671	-8.85714	278.43488	23.60495	12.69001	-226.10716	28.53340	603.31940	256.90826	24.47437	619.35095	12.42479	750.89313	-732.60938	-48.84996	548.68732	-52.56240	103.84204	552.47693	-50.34405	-66.87836	567.78369	830.71686	83.70518	565.17511	835.85913	
5252	52.510	-215.79163	21.03292	-8.82903	278.49289	23.57385	12.66389	-226.01555	28.55498	603.31805	257.00241	24.49447	619.36035	12.31191	751.08582	-732.56238	-48.67793	548.71484	-52.50816	104.24158	552.16949	-50.27499	-66.21902	567.42065	830.43347	83.78336	565.16656	835.88275	
5253	52.520	-215.74982	21.06515	-8.83408	278.55344	23.63393	12.70247	-225.98085	28.55117	603.31598	257.02637	24.46470	619.32581	12.36201	751.30115	-732.51947	-48.54532	548.71179	-52.46370	104.13072	552.45270	-50.31208	-66.02670	567.46204	830.46875	83.88146	565.20935	835.88434	
5254	52.530	-215.72842	21.04943	-8.83192	278.62521	23.62436	12.70747	-225.96098	28.53502	603.30792	257.16330	24.54087	619.39331	12.44694	751.47504	-732.47473	-48.41632	548.66492	-52.41727	104.50990	552.16248	-49.84638	-66.49716	567.93353	830.82312	84.18391	565.36304	836.28119	
5255	52.540	-215.67529	21.04908	-8.84964	278.64484	23.61498	12.66709	-225.89545	28.56727	603.30756	256.84348	24.27197	619.13269	12.53824	751.58014	-732.45581	-48.37103	548.63916	-52.41031	104.72010	552.22540	-49.70610	-66.30316	568.11377	830.91870	84.23309	565.44763	836.31763	
5256	52.550	-216.12239	21.30077	-8.79230	278.74811	23.63705	12.69590	-225.82756	28.61169	603.29309	256.92056	24.35761	619.11096	12.40850	751.71674	-732.40887	-48.24174	548.58960	-52.40011	104.80545	552.13623	-49.68554	-66.20660	568.19708	831.01471	84.37332	565.61194	836.37811	
5257	52.560	-216.02422	21.25080	-8.81580	278.86237	23.62685	12.69724	-225.80626	28.66441	603.27167	256.98605	24.45329	619.14917	12.53490	751.79089	-732.38751	-48.18318	548.57391	-52.38483	104.85789	552.07495	-49.69218	-65.98840	568.16833	831.30225	84.45689	565.74524	836.37512	
5258	52.570	-215.99615	21.28789	-8.83602	278.95419	23.62515	12.65197	-225.76231	28.72207	603.28461	257.04834	24.47417	619.08405	12.71551	751.76819	-732.39941	-48.10826	548.57458	-52.39938	104.99863	552.08264	-49.63774	-65.81614	568.23267	831.37433	84.59199	565.82397	836.42438	
5259	52.580	-215.96741	21.30206	-8.82595	279.03003	23.63035	12.60392	-225.73837	28.77854	603.27325	257.17517	24.55815	619.08795	12.75510	751.67987	-732.42383	-48.07031	548.59424	-52.35887	104.93781	552.10095	-49.65249	-65.74999	568.29962	831.39819	84.77152	565.92859	836.40759	
5260	52.590	-215.91977	21.28560	-8.85950	279.04999	23.62513	12.56591	-225.68327	28.84310	603.28967	257.13269	24.57430	619.06976	12.82982	751.59351	-732.38385	-47.98080	548.55945	-52.31749	105.00252	552.09082	-49.65906	-65.59728	568.35248	831.37946	84.87971	566.00073	836.43018	
5261	52.600	-215.31703	21.01772	-8.91450	279.03900	23.60257	12.49029	-225.63548	28.87367	603.27039	257.17209	24.66380	619.00714	13.02310	751.40894	-732.46326	-47.88131	548.52454	-52.27702	105.07884	552.08044	-49.64878	-65.56471	568.43073	831.39801	85.00134	566.04840	836.42279	
5262	52.610	-215.27100	20.96248	-8.94112	279.08807	23.58825	12.41838	-225.56923	28.90259	603.24878	257.20700	24.71838	618.97870	12.77570	751.26318	-732.41748	-47.86617	548.51685	-52.26158	105.09907	552.06293	-49.63796	-65.45213	568.47168	831.39813	85.17547	566.17041	836.41028	
5263	52.620	-215.22897	20.97652	-8.97243	279.16125	23.61318	12.48370	-225.57135	28.94310	603.24634	257.26108	24.79860	618.97546	12.72768	751.11426	-732.44897	-47.75344	548.50031	-52.25647	105.46236	551.92047	-49.60602	-65.43083	568.61621	831.40375	85.23422	566.26154	836.36292	
5264	52.630	-215.12888	20.96753	-8.99679	279.35675	23.61967	12.33231	-225.48759	28.97689	603.22827	257.33673	24.88464	618.93805	12.69338	750.94928	-732.44049	-47.65293	548.48370	-52.21703	105.50589	551.90411	-49.62483	-65.33743	568.64569	831.39844	85.30173	566.30225	836.32587	
5265	52.640	-215.07524	20.97483	-9.02110	279.39194	23.63952	12.39363	-225.48451	29.05546	603.20764	257.40378	24.94711	618.95221	12.61401	750.78552	-732.41406	-47.58852	548.44501	-52.26265	105.47756	551.96869	-49.97201	-65.26338	568.70825	831.42853	85.31425	566.32306	836.32794	
5266	52.650	-214.98787	20.97108	-9.03337	279.40274	23.60885	12.33340	-225.47227	29.09915	603.19055	257.41901	24.98768	618.94196	12.49653	750.63647	-732.41748	-47.45219	548.41919	-52.22019	105.53741	551.95782	-49.94773	-65.20893	568.74225	831.39325	85.32372	566.34454	836.31073	
5267	52.660	-214.95007	20.97662	-9.08283	279.33844	23.55000	12.21348	-225.40068	29.14579	603.15601	257.50336	25.06249	618.93848	12.35063	750.44055	-732.41040	-47.38597	548.37280	-52.23892	105.61907	551.97516	-49.96317	-65.14889	568.78735	831.41907	85.34043	566.40143	836.25708	
5268	52.670	-214.84697	20.99669	-9.11647	279.50522	23.66003	12.28097	-225.34488	29.20798	603.16016	257.55795	25.15461	618.91113	12.37894	750.28326	-732.42230	-47.27756	548.34735	-52.25807	105.69176	551.96466	-49.95127	-65.06477	568.86652	831.38086	85.32748	566.48114	836.22644	
5269	52.680	-214.79897	21.01275	-9.15431	279.55051	23.64027	12.22966	-225.29256	29.32767	603.12494	257.64279	25.26700	618.91406	12.04819	750.24878	-732.45343	-47.21709	548.30157	-52.23888	105.73307	551.90729	-49.93920	-64.94692	568.99115	831.41174	85.42236	566.50281	836.22943	
5270	52.690	-214.76025	20.98843	-9.18749	279.62985	23.60826	12.19665	-225.32610	29.58636	602.99817	257.67749	25.35420	618.89587	12.06584	750.21533	-732.47400	-47.15852	548.28809	-52.23936	105.82822	551.89832	-49.93018	-65.19056	569.11230	831.09344	85.45026	566.57617	836.22656	
5271	52.700	-214.76662	20.95787	-9.17890	279.60400	23.58465	12.17714	-225.25697	29.52994	603.10162	257.73248	25.42206	618.90167	11.96485	750.19708	-732.48590	-47.11033	548.28790	-52.21474	105.87867	551.84418	-49.92184	-65.07934	569.21130	831.10419	85.54143	566.59070	836.25012	
5272	52.710	-214.74922	20.94023	-9.21462	279.63089	23.60730	12.15682	-225.27364	29.77591	602.98291	257.75586	25.47577	618.86060	11.92397	750.17877	-732.48962	-47.03997	548.27795	-52.23171	105.91409	551.83142	-49.93464	-65.05289	569.29199	831.08118	85.61005	566.62769	836.27466	
5273	52.720	-214.67938	20.95268	-9.23251	279.50812	23.57399	12.14424	-225.19421	29.87872	602.96021	257.83405	25.59412	618.86737	11.85126	750.14893	-732.43304	-46.95850	548.27747	-52.23752	105.96729	551.87592	-49.96425	-64.97372	569.33594	831.06842	85.73586	566.68005	836.26636	
5274	52.730	-214.63576	20.98351	-9.26368	279.56067	23.64520	12.15569	-225.14989	30.01363	602.93976	257.86111	25.70883	618.86597	12.00983	750.13141	-732.41711	-46.93495	548.30084	-52.23083	105.96691	551.86029	-49.95425	-64.93236	569.43475	831.06335	86.34355	566.89563	836.81219	
5275	52.740	-214.55383	20.99518	-9.33087	279.62448	23.63950	12.09585	-225.11456	30.13653	602.93719	257.92728	25.81936	618.83905	12.09312	750.12506	-732.39136	-46.86086	548.31708	-52.18966	105.98743	551.89215	-50.00381	-64.62077	569.39325	831.36255	86.53368	567.05365	836.88245	
5276	52.750	-214.53896	20.96397	-9.32256	279.63165	23.57236	12.07342	-225.08780	30.24086	602.96722	257.91669	25.89253	618.79803	11.94389	750.17065	-732.37677	-46.75946	548.29138	-52.16912	106.00958	551.88495	-49.99647	-64.57777	569.47308	831.33398	86.58077	567.15076	836.92346	
5277	52.760	-214.53030	20.92487	-9.34206	279.60251	23.59793	12.01076	-225.01904	30.30716	602.93591	257.99542	26.01723	618.83130	12.06417	750.16437	-732.36597	-46.58944	548.25885	-52.13374	106.11309	551.87189	-50.01598	-64.43913	569.55627	831.36578	86.26934	567.11981	836.44745	
5278	52.770	-214.47752	20.90161	-9.34579	279.65161	23.59663	11.99919	-225.00420	30.37869	602.90759	258.15210	25.90702	619.03888	12.12182	750.20715	-732.37720	-46.41728	548.26300	-52.12772	106.13689	551.88855	-50.01038	-64.28163	569.58850	831.37909	86.36989	567.25610	836.49023	
5279	52.780	-214.45734	20.90760	-9.39559	279.70737	23.60051	11.99407	-224.97774	30.42582	602.93091	258.03799	26.18884	618.75293	12.23201	750.20496	-732.33960	-46.30865	548.29193	-52.10432	106.28695	551.90375	-50.05871	-64.13476	569.53534	831.36810	86.59175	567.33734	836.49774	
5280	52.790	-214.33266	20.97287	-9.44329	279.81799	23.63578	12.01938	-224.91498	30.48896	602.86456	258.21240	26.02709	618.98334	12.34115	750.24060	-732.33893	-46.07127	548.28625	-52.13061	106.44284	551.94043	-50.03325	-63.98626	569.56329	831.38080	86.68558	567.45532	836.51154	
5281	52.800	-214.27898	21.01974	-9.47678	279.81464	23.66827	12.01262	-224.85236	30.56542	602.85931	258.07175	26.31623	618.69336	12.61386	750.25891	-732.30658	-45.93976	548.23071	-52.12976	106.75584	551.92377	-49.98355	-63.84939	569.55865	831.41846	86.63495	567.37012	836.17468	
5282	52.810	-214.24542	21.00185	-9.51248	279.85992	23.65485	12.01558	-224.81818	30.67015	602.88220	258.11575	26.37502	618.67017	12.53639	750.35028	-732.30615	-45.73508	548.18182	-52.10351	106.93593	551.86383	-49.94243	-63.64766	569.66943	831.45215	86.87880	567.45239	836.20782	
5283	52.820	-214.22021	20.99633	-9.53707	279.86676	23.57736	11.95302	-224.76686	30.75300	602.86523	258.15442	26.40059	618.61145	12.61574	750.34656	-732.27710	-45.48286	548.07953	-52.15654	107.23916	551.80713	-49.87941	-63.39224	569.59595	831.50861	87.08573	567.49915	836.21222	
5284	52.830	-214.19514	20.99200	-9.54019	279.94849	23.59670	11.99839	-224.67172	30.83880	602.82361	258.15918	26.44522	618.64368	12.69499	750.31256	-732.28192	-45.32359	548.02612	-52.16767	107.38748	551.81079	-49.86891	-63.24980	569.66553	831.55902	87.14545	567.57501	836.23517	
5285	52.840	-214.09164	20.99577	-9.59798	280.00961	23.60387	11.99103	-224.57950	30.91007	602.83258	258.25159	26.50398	618.63733	12.87636	750.19427	-732.24939	-45.16978	548.05707	-52.17759	107.68353	551.81995	-49.82970	-62.98783	569.63574	831.63647	87.33962	567.58307	836.25555	
